# AST/ASF file generated using VICON BodyLanguage
# -----------------------------------------------
:version 1.10
:name VICON
:units
  mass 1.0
  length 0.45
  angle deg
:documentation
   .ast/.asf automatically generated from VICON data using
   VICON BodyBuilder and BodyLanguage model FoxedUp or BRILLIANT.MOD
:root
   order TX TY TZ RX RY RZ
   axis XYZ
   position 0 0 0  
   orientation 0 0 0 
:bonedata
  begin
     id 1 
     name lhipjoint
     direction 0.561001 -0.76473 0.316963 
     length 2.4722 
     axis 0 0 0  XYZ
  end
  begin
     id 2 
     name lfemur
     direction 0.34202 -0.939693 0  
     length 7.59403  
     axis 0 0 20  XYZ
    dof rx ry rz
    limits (-160.0 20.0)
           (-70.0 70.0)
           (-60.0 70.0)
  end
  begin
     id 3 
     name ltibia
     direction 0.34202 -0.939693 0   
     length 7.89655   
     axis 0 0 20   XYZ
    dof rx
    limits (-10.0 170.0)
  end
  begin
     id 4 
     name lfoot
     direction 0.061296 -0.168409 0.98381   
     length 2.73287   
     axis -90 7.62852e-016 20   XYZ
    dof rx rz
    limits (-45.0 90.0)
           (-70.0 20.0)
  end
  begin
     id 5 
     name ltoes
     direction 1.53547e-011 -4.21984e-011 1   
     length 1.37057   
     axis -90 7.62852e-016 20   XYZ
    dof rx
    limits (-90.0 20.0)
  end
  begin
     id 6 
     name rhipjoint
     direction -0.559611 -0.765599 0.317323   
     length 2.46939  
     axis 0 0 0  XYZ 
  end
  begin
     id 7 
     name rfemur
     direction -0.34202 -0.939693 0   
     length 7.53712   
     axis 0 0 -20   XYZ
    dof rx ry rz
    limits (-160.0 20.0)
           (-70.0 70.0)
           (-70.0 60.0)
  end
  begin
     id 8 
     name rtibia
     direction -0.34202 -0.939693 0   
     length 8.12549   
     axis 0 0 -20   XYZ
    dof rx
    limits (-10.0 170.0)
 end
 begin
     id 9 
     name rfoot
     direction -0.066984 -0.184037 0.980634   
     length 2.67541  
     axis -90 -7.62852e-016 -20   XYZ
    dof rx rz
    limits (-45.0 90.0)
           (-20.0 70.0)
  end
  begin
     id 10 
     name rtoes
     direction -1.53549e-011 -4.21786e-011 1   
     length 1.34085   
     axis -90 -7.62852e-016 -20   XYZ
    dof rx
    limits (-90.0 20.0)
  end
  begin
     id 11 
     name lowerback
     direction -0.0522728 0.992594 -0.109658   
     length 2.05633   
     axis 0 0 0   XYZ
    dof rx ry rz
    limits (-20.0 45.0)
           (-30.0 30.0)
           (-30.0 30.0)
  end
  begin
     id 12 
     name upperback
     direction 0.00589338 0.999977 0.00335704   
     length 2.05845   
     axis 0 0 0   XYZ
    dof rx ry rz
    limits (-20.0 45.0)
           (-30.0 30.0)
           (-30.0 30.0)
  end
  begin
     id 13 
     name thorax
     direction 0.0292928 0.998059 0.0549487   
     length 2.09281   
     axis 0 0 0   XYZ
    dof rx ry rz
    limits (-20.0 45.0)
           (-30.0 30.0)
           (-30.0 30.0)
  end
  begin
     id 14 
     name lowerneck
     direction 0.0356368 0.980775 0.191858   
     length 1.84767   
     axis 0 0 0   XYZ
    dof rx ry rz
    limits (-20.0 45.0)
           (-30.0 30.0)
           (-30.0 30.0)
  end
  begin
     id 15 
     name upperneck
     direction -0.0227605 0.98931 -0.14404   
     length 1.89582   
     axis 0 0 0   XYZ
    dof rx ry rz
    limits (-20.0 45.0)
           (-30.0 30.0)
           (-30.0 30.0)
  end
  begin
     id 16
     name head
     direction -0.00932985 0.997511 -0.0698904  
     length 1.90213  
     axis 0 0 0   XYZ
    dof rx ry rz
    limits (-20.0 45.0)
           (-30.0 30.0)
           (-30.0 30.0)
  end
  begin
     id 17 
     name lclavicle
     direction 0.873442 0.479511 0.0846686  
     length 3.41193  
     axis 0 0 0   XYZ
    dof ry rz
    limits (-20.0 10.0)
           (0.0 20.0)
  end
  begin
     id 18 
     name lhumerus
     direction 1 -4.4897e-011 -5.62117e-018   
     length 5.59864   
     axis 180 -30 -90   XYZ
    dof rx ry rz
    limits (-60.0 90.0)
           (-90.0 90.0)
           (-90.0 90.0)
  end
  begin
     id 19
     name lradius
     direction 1 -4.48966e-011 -6.26295e-027   
     length 3.59542   
     axis 180 -30 -90   XYZ
    dof rx
    limits (-10.0 170.0)
  end
  begin
     id 20
     name lwrist
     direction 1 -4.48947e-011 -1.74096e-026   
     length 1.79771   
     axis 1.04567e-014 90 90   XYZ
    dof ry
    limits (-180.0 0.0)
 end
  begin
     id 21 
     name lhand
     direction 1 -4.49085e-011 -3.48469e-026   
     length 0.572014   
     axis 2.22196e-014 90 90   XYZ
    dof rx rz
    limits (-90.0 90.0)
           (-45.0 45.0)
  end
  begin
     id 22 
     name lfingers
     direction 1 -4.48884e-011 -6.96135e-026   
     length 0.461173   
     axis 4.44383e-014 90 90   XYZ
    dof rx
    limits (0.0 90.0)
  end
  begin
     id 23
     name lthumb
     direction 0.707107 -6.34976e-011 0.707107   
     length 0.662154   
     axis -90 45 -5.4397e-014   XYZ
    dof rx rz
    limits (-45.0 45.0)
           (-45.0 45.0)
  end
  begin
     id 24 
     name rclavicle
     direction -0.890242 0.443271 0.104786   
     length 3.46753  
     axis 0 0 0   XYZ 
    dof ry rz
    limits (-10.0 20.0)
           (-20.0 0.0)
  end
  begin
     id 25 
     name rhumerus
     direction -1 -4.48963e-011 -5.41723e-018  
     length 5.8094   
     axis 180 30 90   XYZ
    dof rx ry rz
    limits (-90.0 60.0)
           (-90.0 90.0)
           (-90.0 90.0)
  end
  begin
     id 26 
     name rradius
     direction -1 -4.48958e-011 -6.51059e-027   
     length 3.66953   
     axis 180 30 90   XYZ
    dof rx
    limits (-10.0 170.0)
  end
  begin
     id 27 
     name rwrist
     direction -1 -4.48975e-011 -1.74124e-026   
     length 1.83476   
     axis 1.04567e-014 -90 -90   XYZ
    dof ry
    limits (-180.0 0.0)
  end
  begin
     id 28
     name rhand
     direction -1 -4.49013e-011 -3.48326e-026   
     length 0.57843   
     axis 2.22196e-014 -90 -90   XYZ
    dof rx rz
    limits (-90.0 90.0)
           (-45.0 45.0)
  end
  begin
     id 29
     name rfingers
     direction -1 -4.49023e-011 -6.9669e-026   
     length 0.466345   
     axis 4.44383e-014 -90 -90   XYZ
    dof rx
    limits (0.0 90.0)
  end
  begin
     id 30
     name rthumb
     direction -0.707107 -6.34926e-011 0.707107   
     length 0.669581   
     axis -90 -45 5.4397e-014   XYZ
    dof rx rz
    limits (-45.0 45.0)
           (-45.0 45.0)
  end
:hierarchy
  begin
    root lhipjoint rhipjoint lowerback
    lhipjoint lfemur
    lfemur ltibia
    ltibia lfoot
    lfoot ltoes
    rhipjoint rfemur
    rfemur rtibia
    rtibia rfoot
    rfoot rtoes
    lowerback upperback
    upperback thorax
    thorax lowerneck lclavicle rclavicle
    lowerneck upperneck
    upperneck head
    lclavicle lhumerus
    lhumerus lradius
    lradius lwrist
    lwrist lhand lthumb
    lhand lfingers
    rclavicle rhumerus
    rhumerus rradius
    rradius rwrist
    rwrist rhand rthumb
    rhand rfingers
  end

#!OML:ASF H:\SkateBoarding\Project 1\Capture day 1\Session 1\Skater.ASF
:FULLY-SPECIFIED
:DEGREES
320
root 1.21166 19.7221 38.8567 2.20317 47.8225 0.574656
lowerback 6.153 0.867155 -1.97303
upperback -1.43731 1.05358 1.10074
thorax -5.00253 0.598496 2.14154
lowerneck -7.30921 -0.436565 1.97981
upperneck 46.8348 5.09383 -8.95894
head 19.8668 1.91396 -3.77841
rclavicle -8.9391e-015 1.27222e-014
rhumerus -38.4179 -17.5516 -56.9139
rradius 30.3779
rwrist 1.78867
rhand -32.6567 -7.08213
rfingers 7.12502
rthumb -5.88273 -36.9805
lclavicle -8.9391e-015 1.27222e-014
lhumerus -26.2422 -15.0534 81.4028
lradius 46.9914
lwrist 29.059
lhand -12.7979 13.5318
lfingers 7.12502
lthumb 13.288 43.0882
rfemur -13.5955 -4.29657 22.1796
rtibia 21.919
rfoot -25.5204 4.05243
rtoes -1.86149
lfemur -14.7758 -13.1621 -9.92229
ltibia 31.5989
lfoot -40.4002 8.51224
ltoes -19.7953
321
root 1.14982 19.7296 38.8743 2.15123 47.8684 0.640049
lowerback 6.09864 0.827051 -1.89144
upperback -1.44833 1.00896 1.12993
thorax -4.97979 0.57436 2.13119
lowerneck -7.29707 -0.398162 2.02718
upperneck 46.8454 5.15274 -8.97774
head 19.881 1.94603 -3.78737
rclavicle 1.45051e-014 1.19271e-015
rhumerus -39.0768 -17.6736 -56.1581
rradius 30.3533
rwrist 1.66604
rhand -32.7801 -7.3472
rfingers 7.12502
rthumb -6.00191 -37.2422
lclavicle 1.45051e-014 1.19271e-015
lhumerus -26.3537 -15.1581 81.6692
lradius 46.8411
lwrist 28.8857
lhand -12.2211 13.5953
lfingers 7.12502
lthumb 13.8439 43.1145
rfemur -13.4389 -4.22177 22.2436
rtibia 21.6259
rfoot -25.4985 3.80912
rtoes -1.85986
lfemur -14.7944 -11.9304 -10.6696
ltibia 32.8809
lfoot -40.5421 8.06061
ltoes -19.4618
322
root 1.08829 19.7365 38.8901 2.08786 47.9132 0.694256
lowerback 6.04196 0.780824 -1.80124
upperback -1.45564 0.957037 1.16437
thorax -4.95148 0.546358 2.12216
lowerneck -7.28794 -0.357246 2.07846
upperneck 46.8478 5.2163 -9.00547
head 19.8915 1.97913 -3.8004
rclavicle -3.88997e-014 -3.97569e-016
rhumerus -39.7495 -17.7956 -55.3823
rradius 30.3284
rwrist 1.50953
rhand -32.9219 -7.62307
rfingers 7.12502
rthumb -6.13886 -37.5141
lclavicle -3.88997e-014 -3.97569e-016
lhumerus -26.4531 -15.252 81.9349
lradius 46.6834
lwrist 28.6915
lhand -11.7271 13.6564
lfingers 7.12502
lthumb 14.32 43.1426
rfemur -13.2823 -4.13402 22.3221
rtibia 21.3341
rfoot -25.4829 3.56207
rtoes -1.86413
lfemur -14.7802 -10.7008 -11.4176
ltibia 34.1506
lfoot -40.585 7.52133
ltoes -19.1211
323
root 1.02706 19.7427 38.9043 2.01861 47.9622 0.743268
lowerback 5.98084 0.728206 -1.70835
upperback -1.46064 0.896868 1.20163
thorax -4.91793 0.514177 2.11536
lowerneck -7.27691 -0.315347 2.13797
upperneck 46.8417 5.27826 -9.0369
head 19.8956 2.01228 -3.81661
rclavicle 5.14107e-014 2.38542e-015
rhumerus -40.4421 -17.9272 -54.5828
rradius 30.3003
rwrist 1.3446
rhand -33.0824 -7.90089
rfingers 7.12502
rthumb -6.2938 -37.7874
lclavicle 5.14107e-014 2.38542e-015
lhumerus -26.5417 -15.3416 82.1989
lradius 46.5221
lwrist 28.4832
lhand -11.3092 13.7156
lfingers 7.12502
lthumb 14.7226 43.1728
rfemur -13.1321 -4.03662 22.4099
rtibia 21.0543
rfoot -25.4773 3.30946
rtoes -1.89403
lfemur -14.7299 -9.48645 -12.1659
ltibia 35.3873
lfoot -40.5035 6.88795
ltoes -18.7991
324
root 0.965906 19.7479 38.9173 1.95917 48.0203 0.806188
lowerback 5.91448 0.669934 -1.62888
upperback -1.46434 0.828084 1.2402
thorax -4.87999 0.478104 2.11825
lowerneck -7.26724 -0.273046 2.1963
upperneck 46.8293 5.33884 -9.06753
head 19.8954 2.0444 -3.83198
rclavicle -1.94188e-014 3.18055e-015
rhumerus -41.1542 -18.0493 -53.767
rradius 30.2686
rwrist 1.13194
rhand -33.2732 -8.1747
rfingers 7.12502
rthumb -6.47794 -38.0556
lclavicle -1.94188e-014 3.18055e-015
lhumerus -26.6177 -15.4222 82.4661
lradius 46.3566
lwrist 28.2624
lhand -10.9845 13.7669
lfingers 7.12502
lthumb 15.0354 43.2009
rfemur -12.9969 -3.9363 22.4945
rtibia 20.8002
rfoot -25.4896 3.05639
rtoes -1.94012
lfemur -14.6407 -8.30121 -12.9224
ltibia 36.5728
lfoot -40.2861 6.12685
ltoes -18.4548
325
root 0.904791 19.7521 38.9291 1.90654 48.0903 0.879589
lowerback 5.84196 0.608925 -1.55692
upperback -1.46721 0.754901 1.27699
thorax -4.83764 0.440001 2.12386
lowerneck -7.25965 -0.232869 2.25118
upperneck 46.814 5.39101 -9.0879
head 19.8917 2.07346 -3.84261
rclavicle 1.6524e-014 -1.19271e-015
rhumerus -41.9006 -18.1852 -52.9238
rradius 30.2366
rwrist 0.90212
rhand -33.4772 -8.44894
rfingers 7.12502
rthumb -6.67486 -38.3237
lclavicle 1.6524e-014 -1.19271e-015
lhumerus -26.6794 -15.5207 82.7377
lradius 46.1941
lwrist 28.0582
lhand -10.7472 13.8106
lfingers 7.12502
lthumb 15.264 43.2274
rfemur -12.8841 -3.82759 22.5757
rtibia 20.586
rfoot -25.5302 2.80296
rtoes -2.00363
lfemur -14.5063 -7.13967 -13.6827
ltibia 37.6887
lfoot -39.9128 5.25165
ltoes -18.0856
326
root 0.843564 19.7553 38.9401 1.86974 48.1769 0.971715
lowerback 5.76036 0.541073 -1.50456
upperback -1.47037 0.671075 1.31458
thorax -4.79029 0.397168 2.14226
lowerneck -7.25337 -0.192 2.30316
upperneck 46.7948 5.44093 -9.10226
head 19.885 2.10153 -3.84968
rclavicle 1.46169e-014 2.38542e-015
rhumerus -42.6731 -18.3155 -52.0638
rradius 30.205
rwrist 0.623849
rhand -33.7026 -8.7258
rfingers 7.12502
rthumb -6.89249 -38.5936
lclavicle 1.46169e-014 2.38542e-015
lhumerus -26.7347 -15.6237 83.0141
lradius 46.0427
lwrist 27.8763
lhand -10.6018 13.858
lfingers 7.12502
lthumb 15.4041 43.2641
rfemur -12.8022 -3.71702 22.6479
rtibia 20.4219
rfoot -25.5902 2.54868
rtoes -2.08785
lfemur -14.3249 -6.00603 -14.4493
ltibia 38.7223
lfoot -39.3887 4.2731
ltoes -17.7122
327
root 0.782154 19.7576 38.9503 1.85389 48.2828 1.09208
lowerback 5.67125 0.469824 -1.47664
upperback -1.4733 0.580632 1.34844
thorax -4.73839 0.351641 2.17101
lowerneck -7.25005 -0.154511 2.35344
upperneck 46.7784 5.47866 -9.10129
head 19.8784 2.12609 -3.85078
rclavicle 2.59787e-014 3.97569e-015
rhumerus -43.4803 -18.453 -51.1815
rradius 30.1696
rwrist 0.318866
rhand -33.9545 -9.01309
rfingers 7.12502
rthumb -7.13562 -38.8728
lclavicle 2.59787e-014 3.97569e-015
lhumerus -26.7718 -15.7481 83.2989
lradius 45.891
lwrist 27.7202
lhand -10.5452 13.9114
lfingers 7.12502
lthumb 15.4586 43.3133
rfemur -12.7518 -3.60226 22.7023
rtibia 20.3129
rfoot -25.6796 2.29725
rtoes -2.17249
lfemur -14.0922 -4.89138 -15.23
ltibia 39.6622
lfoot -38.714 3.21994
ltoes -17.3292
328
root 0.720409 19.7587 38.9593 1.85418 48.4124 1.22631
lowerback 5.57579 0.389714 -1.45956
upperback -1.47949 0.477504 1.38155
thorax -4.68575 0.300128 2.20605
lowerneck -7.25189 -0.116622 2.40171
upperneck 46.7636 5.51354 -9.09218
head 19.8735 2.14988 -3.84795
rclavicle 6.9351e-014 -3.18055e-015
rhumerus -44.3152 -18.5916 -50.2822
rradius 30.1313
rwrist -0.0110871
rhand -34.22 -9.31706
rfingers 7.12502
rthumb -7.39188 -39.1679
lclavicle 6.9351e-014 -3.18055e-015
lhumerus -26.798 -15.8834 83.5868
lradius 45.7446
lwrist 27.5976
lhand -10.561 13.9727
lfingers 7.12502
lthumb 15.4434 43.3758
rfemur -12.7423 -3.50855 22.7514
rtibia 20.2601
rfoot -25.7806 2.05059
rtoes -2.26365
lfemur -13.8139 -3.79707 -16.0122
ltibia 40.5027
lfoot -37.9041 2.11285
ltoes -16.8833
329
root 0.658078 19.759 38.9679 1.85505 48.5638 1.35972
lowerback 5.47298 0.300931 -1.45352
upperback -1.48693 0.362126 1.41741
thorax -4.62967 0.242849 2.25104
lowerneck -7.25574 -0.0780475 2.44787
upperneck 46.7517 5.54391 -9.06991
head 19.8698 2.17286 -3.83891
rclavicle 2.68546e-014 1.47101e-014
rhumerus -45.1792 -18.7419 -49.3615
rradius 30.0881
rwrist -0.336448
rhand -34.4895 -9.64484
rfingers 7.12502
rthumb -7.65208 -39.4864
lclavicle 2.68546e-014 1.47101e-014
lhumerus -26.8133 -16.0329 83.8749
lradius 45.6041
lwrist 27.5171
lhand -10.6354 14.0528
lfingers 7.12502
lthumb 15.3717 43.4614
rfemur -12.7669 -3.4066 22.8038
rtibia 20.2633
rfoot -25.9146 1.79901
rtoes -2.34286
lfemur -13.481 -2.71604 -16.7816
ltibia 41.2367
lfoot -36.979 0.982768
ltoes -16.3939
330
root 0.595139 19.7582 38.9758 1.85827 48.7375 1.49361
lowerback 5.3655 0.204841 -1.45375
upperback -1.49621 0.236547 1.45337
thorax -4.57224 0.180654 2.30023
lowerneck -7.26433 -0.0414112 2.49665
upperneck 46.745 5.56587 -9.03718
head 19.8693 2.19402 -3.82685
rclavicle -5.43391e-014 -1.74931e-014
rhumerus -46.0732 -18.9014 -48.4224
rradius 30.0414
rwrist -0.656831
rhand -34.7537 -10.0042
rfingers 7.12502
rthumb -7.9071 -39.8363
lclavicle -5.43391e-014 -1.74931e-014
lhumerus -26.8112 -16.1937 84.1598
lradius 45.4614
lwrist 27.46
lhand -10.7235 14.1433
lfingers 7.12502
lthumb 15.2869 43.5584
rfemur -12.8235 -3.31109 22.8593
rtibia 20.315
rfoot -26.0663 1.55075
rtoes -2.40925
lfemur -13.0931 -1.63891 -17.5383
ltibia 41.8625
lfoot -35.9644 -0.157947
ltoes -15.8462
331
root 0.531602 19.7564 38.9831 1.87365 48.9364 1.63961
lowerback 5.25159 0.0984797 -1.47012
upperback -1.50753 0.096115 1.48881
thorax -4.51241 0.111476 2.35889
lowerneck -7.27576 -0.00509515 2.54329
upperneck 46.7413 5.58304 -8.99427
head 19.8705 2.21389 -3.81021
rclavicle -9.24784e-014 6.36111e-015
rhumerus -46.9859 -19.0545 -47.4776
rradius 29.9841
rwrist -0.974931
rhand -35.0212 -10.3802
rfingers 7.12502
rthumb -8.1652 -40.2025
lclavicle -9.24784e-014 6.36111e-015
lhumerus -26.7956 -16.3589 84.4399
lradius 45.3215
lwrist 27.432
lhand -10.8218 14.2569
lfingers 7.12502
lthumb 15.1921 43.6792
rfemur -12.9091 -3.23278 22.9086
rtibia 20.4083
rfoot -26.2408 1.30615
rtoes -2.4563
lfemur -12.6491 -0.57823 -18.2912
ltibia 42.3755
lfoot -34.8891 -1.29909
ltoes -15.1832
332
root 0.467228 19.7536 38.9897 1.8875 49.1516 1.78237
lowerback 5.13481 -0.014909 -1.49297
upperback -1.5201 -0.0540996 1.5246
thorax -4.45148 0.0375692 2.42194
lowerneck -7.28839 0.0297665 2.59496
upperneck 46.7395 5.59323 -8.94517
head 19.8722 2.23242 -3.79272
rclavicle -6.95684e-014 7.95139e-016
rhumerus -47.9191 -19.2049 -46.5303
rradius 29.9225
rwrist -1.28586
rhand -35.27 -10.7768
rfingers 7.12502
rthumb -8.40535 -40.5895
lclavicle -6.95684e-014 7.95139e-016
lhumerus -26.7655 -16.5162 84.7124
lradius 45.1819
lwrist 27.4201
lhand -10.9029 14.3675
lfingers 7.12502
lthumb 15.114 43.7957
rfemur -13.0709 -3.15716 22.9629
rtibia 20.6416
rfoot -26.4666 1.10974
rtoes -2.47933
lfemur -12.1647 0.4748 -19.0235
ltibia 42.8208
lfoot -33.784 -2.47213
ltoes -14.3841
333
root 0.402085 19.7499 38.9956 1.90269 49.3816 1.92196
lowerback 5.01182 -0.137447 -1.52311
upperback -1.53383 -0.216875 1.56203
thorax -4.38722 -0.0424398 2.49131
lowerneck -7.30192 0.0653728 2.64726
upperneck 46.7392 5.59924 -8.88629
head 19.874 2.25029 -3.77118
rclavicle 1.32192e-014 3.97569e-015
rhumerus -48.8625 -19.3509 -45.5853
rradius 29.8546
rwrist -1.56511
rhand -35.4905 -11.1925
rfingers 7.12502
rthumb -8.61817 -40.9966
lclavicle 1.32192e-014 3.97569e-015
lhumerus -26.7184 -16.6532 84.9755
lradius 45.0401
lwrist 27.4161
lhand -10.9637 14.4848
lfingers 7.12502
lthumb 15.0554 43.9173
rfemur -13.2582 -3.089 23.0194
rtibia 20.9093
rfoot -26.6968 0.924479
rtoes -2.5081
lfemur -11.624 1.51841 -19.7337
ltibia 43.1537
lfoot -32.6417 -3.65183
ltoes -13.4255
